<?xml version="1.0" encoding="UTF-8" standalone="no"?>
<!-- Created with Inkscape (http://www.inkscape.org/) -->

<svg
   version="1.1"
   id="svg2457"
   xml:space="preserve"
   width="682.66669"
   height="682.66669"
   viewBox="0 0 682.66669 682.66669"
   xmlns="http://www.w3.org/2000/svg"
   xmlns:svg="http://www.w3.org/2000/svg"><defs
     id="defs2461"><clipPath
       clipPathUnits="userSpaceOnUse"
       id="clipPath2471"><path
         d="M 0,512 H 512 V 0 H 0 Z"
         id="path2469" /></clipPath></defs><g
     id="g2463"
     transform="matrix(1.3333333,0,0,-1.3333333,0,682.66667)"><g
       id="g2465"><g
         id="g2467"
         clip-path="url(#clipPath2471)"><g
           id="g2473"
           transform="translate(460.8389,119.7256)"><path
             d="m 0,0 c -4.745,-17.708 -22.947,-32.064 -40.656,-32.064 -17.709,0 -28.218,14.356 -23.473,32.064 4.745,17.709 22.947,32.065 40.656,32.065 C -5.764,32.065 4.745,17.709 0,0 Z"
             style="fill:none;stroke:#000000;stroke-width:15;stroke-linecap:round;stroke-linejoin:round;stroke-miterlimit:10;stroke-dasharray:none;stroke-opacity:1"
             id="path2475" /></g><g
           id="g2477"
           transform="translate(428.8545,119.7256)"><path
             d="M 0,0 H -0.08"
             style="fill:none;stroke:#000000;stroke-width:15;stroke-linecap:round;stroke-linejoin:round;stroke-miterlimit:10;stroke-dasharray:none;stroke-opacity:1"
             id="path2479" /></g><g
           id="g2481"
           transform="translate(212.3389,119.7256)"><path
             d="m 0,0 c -4.745,-17.708 -22.947,-32.064 -40.656,-32.064 -17.709,0 -28.218,14.356 -23.473,32.064 4.745,17.709 22.947,32.065 40.656,32.065 C -5.764,32.065 4.745,17.709 0,0 Z"
             style="fill:none;stroke:#000000;stroke-width:15;stroke-linecap:round;stroke-linejoin:round;stroke-miterlimit:10;stroke-dasharray:none;stroke-opacity:1"
             id="path2483" /></g><g
           id="g2485"
           transform="translate(180.3545,119.7256)"><path
             d="M 0,0 H -0.08"
             style="fill:none;stroke:#000000;stroke-width:15;stroke-linecap:round;stroke-linejoin:round;stroke-miterlimit:10;stroke-dasharray:none;stroke-opacity:1"
             id="path2487" /></g><g
           id="g2489"
           transform="translate(212.3389,119.7256)"><path
             d="M 0,0 H 184.371"
             style="fill:none;stroke:#000000;stroke-width:15;stroke-linecap:round;stroke-linejoin:round;stroke-miterlimit:10;stroke-dasharray:none;stroke-opacity:1"
             id="path2491" /></g><g
           id="g2493"
           transform="translate(336.1611,328.145)"><path
             d="m 0,0 h 52.266 c 4.426,0 7.054,-3.589 5.868,-8.016 L 4.436,-208.419"
             style="fill:none;stroke:#000000;stroke-width:15;stroke-linecap:round;stroke-linejoin:round;stroke-miterlimit:10;stroke-dasharray:none;stroke-opacity:1"
             id="path2495" /></g><g
           id="g2497"
           transform="translate(148.21,119.7256)"><path
             d="m 0,0 h -40.081 c -4.427,0 -7.054,3.589 -5.868,8.016 l 15.036,56.115"
             style="fill:none;stroke:#000000;stroke-width:15;stroke-linecap:round;stroke-linejoin:round;stroke-miterlimit:10;stroke-dasharray:none;stroke-opacity:1"
             id="path2499" /></g><g
           id="g2501"
           transform="translate(392.147,312.1128)"><path
             d="m 0,0 h 67.916 c 7.23,0 12.268,-4.839 12.302,-11.814 l 0.365,-76.363 27.104,-19.379 c 4.053,-2.897 5.609,-8.115 4.1,-13.747 l -14.751,-55.051 c -2.372,-8.855 -11.473,-16.033 -20.328,-16.033 h -8.016"
             style="fill:none;stroke:#000000;stroke-width:15;stroke-linecap:round;stroke-linejoin:round;stroke-miterlimit:10;stroke-dasharray:none;stroke-opacity:1"
             id="path2503" /></g><g
           id="g2505"
           transform="translate(502.0703,183.855)"><path
             d="M 0,0 H -16.032"
             style="fill:none;stroke:#000000;stroke-width:15;stroke-linecap:round;stroke-linejoin:round;stroke-miterlimit:10;stroke-dasharray:none;stroke-opacity:1"
             id="path2507" /></g><g
           id="g2509"
           transform="translate(453.9736,183.855)"><path
             d="M 0,0 H -96.193"
             style="fill:none;stroke:#000000;stroke-width:15;stroke-linecap:round;stroke-linejoin:round;stroke-miterlimit:10;stroke-dasharray:none;stroke-opacity:1"
             id="path2511" /></g><g
           id="g2513"
           transform="translate(472.7295,223.9355)"><path
             d="m 0,0 h -56.113 c -8.854,0 -14.109,7.178 -11.736,16.032 l 6.443,24.049 c 2.373,8.854 11.474,16.032 20.328,16.032 h 40.081"
             style="fill:none;stroke:#000000;stroke-width:15;stroke-linecap:round;stroke-linejoin:round;stroke-miterlimit:10;stroke-dasharray:none;stroke-opacity:1"
             id="path2515" /></g><g
           id="g2517"
           transform="translate(304.0967,312.1128)"><path
             d="m 0,0 c 0,-61.98 -50.245,-112.226 -112.226,-112.226 -61.981,0 -112.226,50.246 -112.226,112.226 0,61.98 50.245,112.226 112.226,112.226 C -50.245,112.226 0,61.98 0,0 Z"
             style="fill:none;stroke:#000000;stroke-width:15;stroke-linecap:round;stroke-linejoin:round;stroke-miterlimit:10;stroke-dasharray:none;stroke-opacity:1"
             id="path2519" /></g><g
           id="g2521"
           transform="translate(207.9033,312.1128)"><path
             d="m 0,0 c 0,-8.854 -7.178,-16.032 -16.032,-16.032 -8.855,0 -16.032,7.178 -16.032,16.032 0,8.854 7.177,16.032 16.032,16.032 C -7.178,16.032 0,8.854 0,0 Z"
             style="fill:none;stroke:#000000;stroke-width:15;stroke-linecap:round;stroke-linejoin:round;stroke-miterlimit:10;stroke-dasharray:none;stroke-opacity:1"
             id="path2523" /></g><g
           id="g2525"
           transform="translate(204.396,324.6382)"><path
             d="M 0,0 43.588,43.587"
             style="fill:none;stroke:#000000;stroke-width:15;stroke-linecap:round;stroke-linejoin:round;stroke-miterlimit:10;stroke-dasharray:none;stroke-opacity:1"
             id="path2527" /></g><g
           id="g2529"
           transform="translate(159.8066,280.0483)"><path
             d="M 0,0 20.04,20.041"
             style="fill:none;stroke:#000000;stroke-width:15;stroke-linecap:round;stroke-linejoin:round;stroke-miterlimit:10;stroke-dasharray:none;stroke-opacity:1"
             id="path2531" /></g><g
           id="g2533"
           transform="translate(191.8711,392.2744)"><path
             d="M 0,0 V -8.016"
             style="fill:none;stroke:#000000;stroke-width:15;stroke-linecap:round;stroke-linejoin:round;stroke-miterlimit:10;stroke-dasharray:none;stroke-opacity:1"
             id="path2535" /></g><g
           id="g2537"
           transform="translate(191.8711,239.9678)"><path
             d="M 0,0 V -8.016"
             style="fill:none;stroke:#000000;stroke-width:15;stroke-linecap:round;stroke-linejoin:round;stroke-miterlimit:10;stroke-dasharray:none;stroke-opacity:1"
             id="path2539" /></g><g
           id="g2541"
           transform="translate(272.0322,312.1128)"><path
             d="M 0,0 H -8.016"
             style="fill:none;stroke:#000000;stroke-width:15;stroke-linecap:round;stroke-linejoin:round;stroke-miterlimit:10;stroke-dasharray:none;stroke-opacity:1"
             id="path2543" /></g><g
           id="g2545"
           transform="translate(119.7256,312.1128)"><path
             d="M 0,0 H -8.016"
             style="fill:none;stroke:#000000;stroke-width:15;stroke-linecap:round;stroke-linejoin:round;stroke-miterlimit:10;stroke-dasharray:none;stroke-opacity:1"
             id="path2547" /></g><g
           id="g2549"
           transform="translate(87.6611,207.9033)"><path
             d="M 0,0 H -80.161"
             style="fill:none;stroke:#000000;stroke-width:15;stroke-linecap:round;stroke-linejoin:round;stroke-miterlimit:10;stroke-dasharray:none;stroke-opacity:1"
             id="path2551" /></g><g
           id="g2553"
           transform="translate(79.645,175.8389)"><path
             d="M 0,0 H -48.097"
             style="fill:none;stroke:#000000;stroke-width:15;stroke-linecap:round;stroke-linejoin:round;stroke-miterlimit:10;stroke-dasharray:none;stroke-opacity:1"
             id="path2555" /></g><g
           id="g2557"
           transform="translate(71.6289,143.7744)"><path
             d="M 0,0 H -16.032"
             style="fill:none;stroke:#000000;stroke-width:15;stroke-linecap:round;stroke-linejoin:round;stroke-miterlimit:10;stroke-dasharray:none;stroke-opacity:1"
             id="path2559" /></g></g></g></g></svg>
