<svg id="Layer_1" height="512" viewBox="0 0 517.1 335.6" width="512" xmlns="http://www.w3.org/2000/svg"><g id="Layer_31"><path d="m506.8 199.5v-8.6-7.4l-61.6-84.1-13.9-19c-3.7-5-9.4-8-15.6-8.2l-77.4-1.9v-35.4c0-7.5-6-13.5-13.5-13.5h-283.3c-7.5 0-13.5 6-13.6 13.5v26.8h-6.2v10h6.3l.2 197.8c0 7.5 6.1 13.6 13.6 13.6h36.5l.3-4.7c1.9-29.2 25.4-50.4 55.9-50.4s54.6 21.7 56.4 50.4l.3 4.7h157.5l.4-4.5c3.2-30.9 30.9-53.4 61.8-50.2 26.5 2.7 47.4 23.7 50.2 50.2l.4 4.5h30.5c8.2-.1 14.7-6.6 14.8-14.8v-28.8c6.1-2 10.3-7.8 10.3-14.2v-11.7c0-6.4-4.2-12.1-10.3-14.1zm-306.4 73.6c-4.4-31.7-31.9-55.1-65.9-55.1-16.6-.2-32.7 5.8-45.2 16.8-11.1 9.9-18.3 23.5-20.2 38.3h-27.3c-2 0-3.6-1.6-3.6-3.6l-.2-197.8h107.1v-10h-107.2v-26.8c.1-1.9 1.7-3.5 3.6-3.5h283.2c1.9 0 3.5 1.6 3.5 3.5l.3 238.2zm292.1-92.2h-98.4c-2 0-3.7-1.7-3.7-3.7v-64.1c-.1-2 1.5-3.6 3.5-3.7h.2 46l18.3 24.9zm4.3 87.3c-.1 2.6-2.2 4.7-4.8 4.8h-21.6c-6.3-36.1-40.7-60.2-76.8-53.8-27.5 4.8-49 26.3-53.8 53.8h-1.3v-192.6l76.9 1.8c3.1.1 6 1.6 7.8 4.1l9.6 13.1h-38.7c-7.6 0-13.7 6.1-13.7 13.7v64.1c0 7.6 6.1 13.7 13.7 13.7h102.7v7.9c-8 .3-14.3 6.8-14.3 14.8v11.7c0 8 6.3 14.5 14.3 14.9zm10.3-42.9c0 .6-.1 1.2-.3 1.7-.7 1.9-2.6 3.2-4.6 3.2h-5.4c-2.4-.3-4.3-2.3-4.3-4.8v-11.8c0-2.5 1.9-4.5 4.3-4.8h5.4c2.1 0 3.9 1.3 4.6 3.2.2.5.3 1.1.3 1.6z"/><path d="m405.1 233.3c-28.6 0-51.9 22.9-51.9 51.1s23.3 51.2 51.9 51.2 51.9-23 51.9-51.2-23.3-51.1-51.9-51.1zm0 92.3c-23.1 0-41.9-18.5-41.9-41.2s18.8-41.1 41.9-41.1 41.9 18.5 41.9 41.1-18.8 41.2-41.9 41.2z"/><path d="m405.1 258.9c-14.1.2-25.4 11.7-25.2 25.8s11.7 25.4 25.8 25.2c14-.2 25.2-11.5 25.2-25.5-.1-14.2-11.6-25.6-25.8-25.5zm0 41c-8.6-.2-15.4-7.2-15.2-15.8s7.2-15.4 15.8-15.2c8.4.2 15.2 7.1 15.2 15.5-.1 8.6-7.1 15.6-15.7 15.5z"/><path d="m134.5 233.3c-28.6 0-51.9 22.9-51.9 51.1s23.3 51.2 51.9 51.2 51.9-23 51.9-51.2-23.3-51.1-51.9-51.1zm0 92.3c-23.1 0-41.9-18.5-41.9-41.2s18.8-41.1 41.9-41.1 41.9 18.5 41.9 41.1-18.8 41.2-41.9 41.2z"/><path d="m134.5 258.9c-14.1.2-25.3 11.8-25.1 25.9s11.8 25.3 25.9 25.1c13.9-.2 25.1-11.6 25.1-25.5-.1-14.2-11.7-25.6-25.9-25.5zm0 41c-8.6-.2-15.3-7.3-15.1-15.9s7.3-15.3 15.9-15.1c8.4.2 15.1 7.1 15.1 15.5-.1 8.6-7.1 15.6-15.7 15.5-.1 0-.1 0-.2 0z"/><path d="m207.4 304.2h16.6v10h-16.6z"/><path d="m236.3 304.2h92.6v10h-92.6z"/><path d="m79.6 0h16.6v10h-16.6z"/><path d="m108.4 0h92.6v10h-92.6z"/><path d="m1.4 60.4h10v12.7h-10z" transform="matrix(.016 -1 1 .016 -60.41 72.132)"/><path d="m49.9 195.8h54.1v10h-54.1z"/><path d="m121.2 195.8h166.7v10h-166.7z"/><path d="m122.9 136.9v-1.4c-.1-1.8-1.6-3.3-3.4-3.3h-17.5v-16.3h19.2c1.8 0 3.3-1.5 3.4-3.3v-1.4c0-1.9-1.5-3.4-3.4-3.4h-28.5v54.1c0 1.8 1.5 3.3 3.3 3.3h2.6c1.8 0 3.3-1.5 3.4-3.3v-21.7h17.5c1.8 0 3.3-1.5 3.4-3.3z"/><path d="m136 165.2h2.6c1.8 0 3.3-1.5 3.3-3.3v-20.6h5.6c6 .2 8.5 2.7 10.1 9.9s2.9 12 3.8 13.5l.3.5h9.8l-.8-1.6c-1.2-2-2.5-7.7-4.2-14.9-1.2-5.3-3.5-9-6.8-10.9 5.7-2.5 9.3-8.1 9.1-14.3.1-4.3-1.6-8.4-4.7-11.3-3.7-3.3-8.8-4.8-16.7-4.8-4.7-.1-9.3.3-13.9 1.2h-.9v53.2c0 1.9 1.5 3.4 3.4 3.4zm5.9-49.7c2-.4 4-.6 6-.5 5.3.1 11.6 1.7 11.6 9.3 0 5.7-4.4 9.4-11.4 9.4h-6.2z"/><path d="m210 161.9v-1.4c0-1.9-1.5-3.4-3.4-3.4h-20.6v-17.8h18.2c1.8 0 3.3-1.5 3.3-3.3v-1.4c0-1.8-1.5-3.3-3.3-3.3h-18.2v-15.4h19.4c1.8 0 3.3-1.5 3.4-3.3v-1.4c0-1.9-1.5-3.4-3.4-3.4h-28.7v57.4h29.9c1.8 0 3.3-1.5 3.4-3.3z"/><path d="m250.3 161.9v-1.4c0-1.8-1.5-3.3-3.3-3.4h-20.6v-17.8h18.1c1.8 0 3.3-1.5 3.4-3.3v-1.4c-.1-1.8-1.6-3.3-3.4-3.3h-18.1v-15.4h19.3c1.8 0 3.3-1.5 3.4-3.3v-1.4c0-1.9-1.5-3.4-3.4-3.4h-28.6v57.4h29.9c1.8 0 3.3-1.5 3.3-3.3z"/></g></svg>