<svg xmlns="http://www.w3.org/2000/svg" version="1.1" xmlns:xlink="http://www.w3.org/1999/xlink" width="512" height="512" x="0" y="0" viewBox="0 0 512 512" style="enable-background:new 0 0 512 512" xml:space="preserve" class=""><circle r="256" cx="256" cy="256" fill="#e0e6ea" shape="circle" transform="matrix(0.9,0,0,0.9,25.599999999999994,25.599999999999994)"></circle><g transform="matrix(1,0,0,1,0,0)"><g fill-rule="evenodd" clip-rule="evenodd"><path fill="#fff3bf" d="M30.204 512H183.73V381.464H30.204a6.011 6.011 0 0 0-6.01 6.009v118.546c0 3.288 2.693 5.981 6.01 5.981z" opacity="1" data-original="#fff3bf"></path><path fill="#fff0af" d="M30.204 512H183.73v-25.002H30.204c-3.317 0-6.01-2.693-6.01-5.98v25.001c0 3.288 2.693 5.981 6.01 5.981z" opacity="1" data-original="#fff0af"></path><path fill="#ffe07d" d="M328.27 512h153.526c3.317 0 6.01-2.693 6.01-5.981V327.434a6.013 6.013 0 0 0-6.01-6.009H328.27z" opacity="1" data-original="#ffe07d"></path><path fill="#ffd064" d="M328.27 512h153.526c3.317 0 6.01-2.693 6.01-5.981v-25.001c0 3.287-2.693 5.98-6.01 5.98H328.27z" opacity="1" data-original="#ffd064"></path></g><path fill="#dd636e" d="M217.065 168.352c4.11-.538 7.88 2.324 8.419 6.406.567 4.11-2.324 7.881-6.406 8.419-10.63 1.446-22.96-.624-35.122-5.867-11.282-4.848-22.536-12.501-32.287-22.678-13.805-14.429-22.48-31.323-25.399-46.914-3.09-16.696.312-32.117 11.027-42.35 5.471-5.244 11.764-8.221 18.482-9.666 6.321-1.361 12.954-1.275 19.474-.369 4.11.567 6.973 4.365 6.406 8.447s-4.366 6.945-8.447 6.379c-4.933-.681-9.836-.766-14.343.198-4.11.878-7.965 2.692-11.254 5.839-6.803 6.491-8.815 17.036-6.633 28.828 2.381 12.869 9.751 26.987 21.515 39.29 8.277 8.617 17.83 15.108 27.355 19.219 9.753 4.196 19.305 5.896 27.213 4.819zM294.935 168.352c-4.11-.538-7.88 2.324-8.419 6.406-.538 4.11 2.324 7.881 6.406 8.419 10.658 1.446 22.989-.624 35.122-5.867 11.282-4.848 22.564-12.501 32.287-22.678 13.805-14.429 22.508-31.323 25.399-46.914 3.118-16.696-.312-32.117-11.027-42.35-5.471-5.244-11.764-8.221-18.482-9.666-6.321-1.361-12.954-1.275-19.474-.369-4.11.567-6.945 4.365-6.378 8.447s4.337 6.945 8.419 6.379c4.961-.681 9.836-.766 14.344.198 4.11.878 7.965 2.692 11.282 5.839 6.775 6.491 8.815 17.036 6.604 28.828-2.381 12.869-9.751 26.987-21.515 39.29-8.277 8.617-17.83 15.108-27.355 19.219-9.724 4.196-19.277 5.896-27.213 4.819z" opacity="1" data-original="#dd636e"></path><path fill="#e28086" fill-rule="evenodd" d="M339.411 35.688c0 72.738-36.426 136.065-59.329 155-22.905 18.935 26.504 51.677 26.504 81.809l-50.174 8.107-50.996-8.107c0-30.132 49.409-62.873 26.504-81.809-22.904-18.935-59.329-82.262-59.329-155l81.724-6.604z" clip-rule="evenodd" opacity="1" data-original="#e28086"></path><path fill="#ffc250" fill-rule="evenodd" d="M178.741 512H333.26V278.507c0-3.316-2.693-6.01-5.981-6.01H184.722c-3.288 0-5.981 2.693-5.981 6.01z" clip-rule="evenodd" opacity="1" data-original="#ffc250" class=""></path><path fill="#30579d" d="M248.701 308.584c-4.139 0-7.512-3.346-7.512-7.485a7.507 7.507 0 0 1 7.512-7.512H263.3a7.507 7.507 0 0 1 7.512 7.512v68.345c0 4.139-3.373 7.512-7.512 7.512s-7.483-3.373-7.483-7.512v-60.859h-7.116z" opacity="1" data-original="#30579d" class=""></path><path fill="#ebb044" fill-rule="evenodd" d="M178.741 486.998H333.26V512H178.741z" clip-rule="evenodd" opacity="1" data-original="#ebb044"></path><path fill="#dd636e" fill-rule="evenodd" d="M297.967 247.496c4.933 8.306 8.618 16.753 8.618 25.001h-101.17c0-8.248 3.685-16.695 8.618-25.001z" clip-rule="evenodd" opacity="1" data-original="#dd636e"></path><path fill="#ffc250" d="m260.153 66.87 11.14 18.113 20.722 5.018a4.806 4.806 0 0 1 3.544 5.812 4.419 4.419 0 0 1-1.021 1.983l-13.833 16.215 1.672 21.317a4.82 4.82 0 0 1-4.451 5.159c-.907.057-1.758-.113-2.495-.481l-19.417-8.023-19.757 8.136c-2.438 1.02-5.245-.143-6.265-2.608a4.804 4.804 0 0 1-.369-2.183l1.672-21.317-13.833-16.215a4.78 4.78 0 0 1 .539-6.774c.623-.567 1.389-.907 2.183-1.077l20.523-4.961 11.197-18.198a4.795 4.795 0 0 1 6.633-1.559c.68.396 1.219.992 1.616 1.643z" opacity="1" data-original="#ffc250" class=""></path><path fill="#ebb044" d="m280.733 114.294 1.644 21.034a4.82 4.82 0 0 1-4.451 5.159c-.907.057-1.758-.113-2.495-.481l-19.417-8.023-19.757 8.136c-2.438 1.02-5.245-.143-6.265-2.608a4.804 4.804 0 0 1-.369-2.183l1.644-21.034c1.332 1.162 3.26 1.559 4.99.822l16.384-6.746c2.239-.936 4.479-.936 6.718 0l16.073 6.633c.737.368 1.587.538 2.495.481a4.746 4.746 0 0 0 2.806-1.19z" opacity="1" data-original="#ebb044"></path><path fill="#dd636e" fill-rule="evenodd" d="M172.589 35.688H339.41c9.808 0 17.858-8.022 17.858-17.83C357.268 8.022 349.218 0 339.41 0H172.589c-9.808 0-17.83 8.023-17.83 17.858.001 9.808 8.023 17.83 17.83 17.83z" clip-rule="evenodd" opacity="1" data-original="#dd636e"></path><path fill="#30579d" d="M430.829 412.077a7.494 7.494 0 0 1 7.568 7.398c.057 4.11-3.26 7.512-7.37 7.541-.114 0-34.498.453-37.305-.482-5.272-1.758-6.747-4.705-4.989-10.006.652-1.928 1.956-3.601 4.79-7.342 3.6-4.706 10.148-13.267 20.778-28.461 1.729-2.495 3.09-4.763 4.082-6.804 2.324-4.705 3.458-9.24-.766-13.492a9.958 9.958 0 0 0-7.086-2.92 10.01 10.01 0 0 0-6.35 2.239 10 10 0 0 0-3.459 5.811c-.793 4.053-4.734 6.69-8.787 5.896a7.49 7.49 0 0 1-5.924-8.787c1.134-5.783 4.28-10.856 8.674-14.457 4.337-3.571 9.865-5.697 15.846-5.697 6.917 0 13.153 2.806 17.688 7.314 5.613 5.612 8.561 14.173 6.775 21.996-.624 2.637-1.644 5.5-3.175 8.647-1.36 2.749-3.09 5.669-5.272 8.788-7.483 10.715-12.841 18.028-16.611 23.045 9.299-.084 20.864-.227 20.893-.227zM91.66 427.3c-.794 4.053-4.734 6.689-8.788 5.896a7.468 7.468 0 0 1-5.924-8.787c1.134-5.782 4.28-10.856 8.674-14.456 4.337-3.572 9.865-5.698 15.846-5.698a24.944 24.944 0 0 1 17.661 7.314c4.535 4.535 7.341 10.771 7.341 17.688a24.9 24.9 0 0 1-7.143 17.49 24.903 24.903 0 0 1 7.143 17.49 24.847 24.847 0 0 1-7.341 17.66 24.846 24.846 0 0 1-17.661 7.342c-6.236 0-11.962-2.324-16.356-6.151-4.45-3.854-7.54-9.268-8.391-15.392a19.687 19.687 0 0 1-.17-1.73 22.221 22.221 0 0 1-.085-1.728c0-4.139 3.373-7.512 7.512-7.512s7.483 3.373 7.483 7.512c0 2.92 1.191 5.584 3.43 7.541 1.757 1.53 4.053 2.438 6.576 2.438a9.94 9.94 0 0 0 7.059-2.92 9.942 9.942 0 0 0 2.92-7.059 9.955 9.955 0 0 0-2.92-7.087 9.952 9.952 0 0 0-7.059-2.92c-4.139 0-7.512-3.345-7.512-7.483 0-4.139 3.373-7.512 7.512-7.512a9.94 9.94 0 0 0 7.059-2.92 9.944 9.944 0 0 0 2.92-7.059 9.954 9.954 0 0 0-2.92-7.086 9.942 9.942 0 0 0-7.059-2.92c-2.437 0-4.649.851-6.35 2.239a9.906 9.906 0 0 0-3.457 5.81z" opacity="1" data-original="#30579d" class=""></path></g></svg>