<?xml version="1.0" encoding="UTF-8" standalone="no"?>
<!-- Created with Inkscape (http://www.inkscape.org/) -->

<svg
   version="1.1"
   id="svg9519"
   xml:space="preserve"
   width="682.66669"
   height="682.66669"
   viewBox="0 0 682.66669 682.66669"
   xmlns="http://www.w3.org/2000/svg"
   xmlns:svg="http://www.w3.org/2000/svg"><defs
     id="defs9523"><clipPath
       clipPathUnits="userSpaceOnUse"
       id="clipPath9533"><path
         d="M 0,512 H 512 V 0 H 0 Z"
         id="path9531" /></clipPath></defs><g
     id="g9525"
     transform="matrix(1.3333333,0,0,-1.3333333,0,682.66667)"><g
       id="g9527"><g
         id="g9529"
         clip-path="url(#clipPath9533)"><g
           id="g9535"
           transform="translate(139.7871,139.7871)"><path
             d="m 0,0 c 14.131,-14.131 14.131,-37.041 0,-51.171 -14.13,-14.131 -37.041,-14.131 -51.171,0 -14.131,14.13 -14.131,37.04 0,51.171 C -37.041,14.131 -14.13,14.131 0,0 Z"
             style="fill:none;stroke:#000000;stroke-width:15;stroke-linecap:round;stroke-linejoin:round;stroke-miterlimit:10;stroke-dasharray:none;stroke-opacity:1"
             id="path9537" /></g><g
           id="g9539"
           transform="translate(161.0244,161.0244)"><path
             d="m 0,0 12.708,12.708 c 7.065,7.064 7.065,18.521 0,25.585 v 0 c -7.065,7.065 -18.521,7.065 -25.586,10e-4 L -28.136,23.035 23.036,-28.136"
             style="fill:none;stroke:#000000;stroke-width:15;stroke-linecap:round;stroke-linejoin:round;stroke-miterlimit:10;stroke-dasharray:none;stroke-opacity:1"
             id="path9541" /></g><g
           id="g9543"
           transform="translate(211.6113,160.4395)"><path
             d="M 0,0 -44.421,5.73"
             style="fill:none;stroke:#000000;stroke-width:15;stroke-linecap:round;stroke-linejoin:round;stroke-miterlimit:10;stroke-dasharray:none;stroke-opacity:1"
             id="path9545" /></g><g
           id="g9547"
           transform="translate(412.2422,361.0703)"><path
             d="m 0,0 c -8.291,3.734 -62.302,28.058 -70.565,31.778 l 31.778,-70.564"
             style="fill:none;stroke:#000000;stroke-width:15;stroke-linecap:round;stroke-linejoin:round;stroke-miterlimit:10;stroke-dasharray:none;stroke-opacity:1"
             id="path9549" /></g><g
           id="g9551"
           transform="translate(368.7324,342.874)"><path
             d="M 0,0 23.115,23.115"
             style="fill:none;stroke:#000000;stroke-width:15;stroke-linecap:round;stroke-linejoin:round;stroke-miterlimit:10;stroke-dasharray:none;stroke-opacity:1"
             id="path9553" /></g><g
           id="g9555"
           transform="translate(322.2402,271.0693)"><path
             d="M 0,0 -51.171,51.171 33.563,33.563 -17.608,84.733"
             style="fill:none;stroke:#000000;stroke-width:15;stroke-linecap:round;stroke-linejoin:round;stroke-miterlimit:10;stroke-dasharray:none;stroke-opacity:1"
             id="path9557" /></g><g
           id="g9559"
           transform="translate(379.1235,430.2949)"><path
             d="m 0,0 51.171,-51.172 18.675,18.676"
             style="fill:none;stroke:#000000;stroke-width:15;stroke-linecap:round;stroke-linejoin:round;stroke-miterlimit:10;stroke-dasharray:none;stroke-opacity:1"
             id="path9561" /></g><g
           id="g9563"
           transform="translate(180.5601,231.7314)"><path
             d="M 0,0 51.171,-51.172"
             style="fill:none;stroke:#000000;stroke-width:15;stroke-linecap:round;stroke-linejoin:round;stroke-miterlimit:10;stroke-dasharray:none;stroke-opacity:1"
             id="path9565" /></g><g
           id="g9567"
           transform="translate(249.9019,301.0732)"><path
             d="M 0,0 51.171,-51.172"
             style="fill:none;stroke:#000000;stroke-width:15;stroke-linecap:round;stroke-linejoin:round;stroke-miterlimit:10;stroke-dasharray:none;stroke-opacity:1"
             id="path9569" /></g><g
           id="g9571"
           transform="translate(239.4966,269.1719)"><path
             d="m 0,0 c -7.869,4.516 -18.083,3.413 -24.806,-3.311 -8.043,-8.042 -8.043,-21.083 0,-29.126 l 22.045,-22.044 c 8.043,-8.043 21.083,-8.043 29.126,0 8.043,8.043 8.043,21.083 0,29.126 l -6.893,6.892 -8.904,-8.903"
             style="fill:none;stroke:#000000;stroke-width:15;stroke-linecap:round;stroke-linejoin:round;stroke-miterlimit:10;stroke-dasharray:none;stroke-opacity:1"
             id="path9573" /></g><g
           id="g9575"
           transform="translate(37.4365,145.5684)"><path
             d="m 0,0 328.995,328.995 -1.693,4.056 c -1.32,3.162 -4.83,4.799 -8.1,3.777 l -13.886,-4.337 c -18.03,-5.632 -37.962,-0.306 -50.78,13.567 l -9.922,10.742 c -2.322,2.512 -6.174,2.848 -8.895,0.774 l -11.62,-8.857 c -15.042,-11.466 -35.615,-13.257 -52.41,-4.565 l -12.945,6.699 c -3.04,1.574 -6.78,0.574 -8.63,-2.306 l -7.884,-12.274 c -10.203,-15.879 -28.884,-24.588 -47.602,-22.2 l -14.473,1.85 c -3.396,0.434 -6.565,-1.788 -7.314,-5.129 l -3.189,-14.224 c -4.14,-18.47 -18.753,-33.084 -37.226,-37.224 l -14.222,-3.189 c -3.341,-0.749 -5.563,-3.918 -5.129,-7.314 l 1.848,-14.47 C 17.317,215.654 8.605,196.968 -7.274,186.768 l -12.275,-7.885 c -2.881,-1.851 -3.88,-5.59 -2.306,-8.631 l 6.699,-12.944 c 8.693,-16.795 6.901,-37.368 -4.564,-52.409 l -8.859,-11.622 c -2.074,-2.72 -1.738,-6.573 0.775,-8.894 l 7.656,-7.071 C -4.314,62.687 1.681,40.251 -4.746,19.677 L -7.833,9.793 c -1.022,-3.271 0.615,-6.78 3.777,-8.1 z"
             style="fill:none;stroke:#000000;stroke-width:15;stroke-linecap:round;stroke-linejoin:round;stroke-miterlimit:10;stroke-dasharray:none;stroke-opacity:1"
             id="path9577" /></g><g
           id="g9579"
           transform="translate(474.5635,366.4307)"><path
             d="m 0,0 -328.995,-328.995 1.692,-4.055 c 1.32,-3.161 4.83,-4.799 8.1,-3.777 l 13.888,4.338 c 18.033,5.634 37.967,0.305 50.785,-13.573 l 9.916,-10.737 c 2.322,-2.513 6.174,-2.848 8.895,-0.774 l 11.62,8.858 c 15.043,11.466 35.616,13.257 52.411,4.564 l 12.945,-6.699 c 3.04,-1.573 6.78,-0.574 8.63,2.307 l 7.884,12.273 c 1.902,2.96 4.098,5.67 6.534,8.107 10.634,10.634 25.841,16.039 41.071,14.092 l 14.469,-1.849 c 3.396,-0.434 6.565,1.788 7.314,5.129 l 2.27,10.123 c 4.724,21.069 21.177,37.522 42.247,42.246 l 10.121,2.269 c 3.341,0.749 5.563,3.918 5.129,7.314 l -1.849,14.47 c -2.392,18.719 6.328,37.408 22.2,47.604 l 12.272,7.884 c 2.881,1.85 3.88,5.589 2.306,8.63 l -6.699,12.946 c -8.691,16.795 -6.9,37.367 4.566,52.409 l 8.857,11.62 c 2.074,2.72 1.738,6.572 -0.775,8.894 l -10.738,9.918 C 3.188,-61.641 -2.136,-41.708 3.496,-23.68 l 4.337,13.888 c 1.022,3.27 -0.615,6.78 -3.777,8.1 z"
             style="fill:none;stroke:#000000;stroke-width:15;stroke-linecap:round;stroke-linejoin:round;stroke-miterlimit:10;stroke-dasharray:none;stroke-opacity:1"
             id="path9581" /></g><g
           id="g9583"
           transform="translate(130.6294,381.3711)"><path
             d="m 0,0 c -49.781,-49.781 -63.71,-122.041 -41.796,-184.406 l 26.808,26.808 c -10.649,46.728 2.176,97.772 38.495,134.091 36.319,36.319 87.363,49.144 134.09,38.494 l 26.809,26.809 C 122.041,63.71 49.781,49.78 0,0 Z"
             style="fill:none;stroke:#000000;stroke-width:15;stroke-linecap:round;stroke-linejoin:round;stroke-miterlimit:10;stroke-dasharray:none;stroke-opacity:1"
             id="path9585" /></g><g
           id="g9587"
           transform="translate(273.5,79.667)"><path
             d="m 0,0 c 39.405,3.874 77.753,20.845 107.871,50.962 49.78,49.781 63.71,122.041 41.796,184.405 L 122.858,208.559 C 133.507,161.831 120.683,110.788 84.364,74.47 48.045,38.15 -2.999,25.326 -49.726,35.975 L -76.535,9.166 C -63.043,4.426 -49.089,1.37 -35,-0.016"
             style="fill:none;stroke:#000000;stroke-width:15;stroke-linecap:round;stroke-linejoin:round;stroke-miterlimit:10;stroke-dasharray:none;stroke-opacity:1"
             id="path9589" /></g><g
           id="g9591"
           transform="translate(434.5688,466.8643)"><path
             d="m 0,0 -27.457,27.457 c -5.777,5.778 -15.145,5.778 -20.923,0 l -368.51,-368.51 c -5.778,-5.778 -5.778,-15.146 0,-20.924 l 87.209,-87.209 c 5.778,-5.777 15.145,-5.778 20.924,0 l 368.509,368.51 c 5.779,5.779 5.778,15.147 0,20.924 l -35.003,35.004"
             style="fill:none;stroke:#000000;stroke-width:15;stroke-linecap:round;stroke-linejoin:round;stroke-miterlimit:10;stroke-dasharray:none;stroke-opacity:1"
             id="path9593" /></g></g></g></g></svg>
