<svg xmlns="http://www.w3.org/2000/svg" version="1.1" xmlns:xlink="http://www.w3.org/1999/xlink" width="512" height="512" x="0" y="0" viewBox="0 0 512 512" style="enable-background:new 0 0 512 512" xml:space="preserve" class=""><g><path d="M408.527 124.172h-11.765l-109.996-75.91C297.117 25.762 280.57 0 255.805 0c-18.785 0-34.07 15.285-34.07 34.07 0 5.063 1.12 9.868 3.109 14.192l-109.996 75.91h-11.762C46.242 124.172 0 170.414 0 227.258v181.656C0 465.758 46.242 512 103.086 512h305.441c56.84 0 103.082-46.242 103.082-103.086V227.258c0-56.844-46.242-103.086-103.082-103.086zM255.805 15.137c10.441 0 18.933 8.492 18.933 18.933 0 10.438-8.492 18.934-18.933 18.934-10.442 0-18.934-8.496-18.934-18.934 0-10.441 8.496-18.933 18.934-18.933zm239.66 393.777c0 47.941-39 86.941-86.938 86.941H103.086c-47.941 0-86.941-39-86.941-86.94V227.257c0-47.942 39-86.942 86.94-86.942h72.02a8.072 8.072 0 0 0 8.075-8.074 8.071 8.071 0 0 0-8.075-8.07h-33.609l92.574-63.887c12.621 10.48 30.86 10.469 43.47 0l92.573 63.887H205.38c-4.457 0-8.074 3.613-8.074 8.07a8.075 8.075 0 0 0 8.074 8.074h203.148c47.938 0 86.938 39 86.938 86.942zm0 0" fill="#796703" opacity="1" data-original="#000000" class=""></path><path d="M464.64 201.59a8.07 8.07 0 0 0-4.847 10.336c4.527 12.531 3.293 3.668 3.293 193.406 0 30.68-24.957 55.64-55.64 55.64-329.747 0-310.544 1.762-325.071-4.425a8.074 8.074 0 0 0-6.324 14.855c8.902 3.793 18.363 5.715 28.113 5.715h303.281c39.586 0 71.785-32.203 71.785-71.785 0-189.523 1.524-182.914-4.253-198.898-1.516-4.192-6.145-6.364-10.336-4.844zM104.164 175.2h303.281c14.11 0 27.567 5.288 37.89 14.89a8.073 8.073 0 0 0 10.997-11.82c-13.32-12.391-30.68-19.215-48.883-19.215H104.164c-39.582 0-71.785 32.203-71.785 71.785v174.492c0 16.746 5.887 33.043 16.582 45.89a8.061 8.061 0 0 0 6.21 2.91c6.774 0 10.595-7.956 6.2-13.234-8.285-9.957-12.848-22.59-12.844-35.566V230.84c-.004-30.684 24.957-55.64 55.637-55.64zm0 0" fill="#796703" opacity="1" data-original="#000000" class=""></path><path d="M74.098 209.238c-4.188 0-6.84 2.653-6.84 5.586v90.715c0 7.66 18.144 7.57 18.144 0V273.16h15.63c20.343 0 32.8-10.226 32.8-32.52 0-22.89-13.957-31.402-31.684-31.402zm41.59 31.961v1.676c0 10.887-5.583 16.05-14.653 16.05H85.402v-33.777h15.633c9.07 0 14.653 5.165 14.653 16.051zM211.566 238.41c0-22.191-14.793-29.172-33.078-29.172h-27.633c-3.488 0-5.863 2.653-5.863 5.586v90.715c0 7.57 18.145 7.664 18.145 0v-36.426h11.722l19.82 38.52c5.516 11.031 21.356-1.809 16.887-7.399l-18.285-33.914c10.469-3.21 18.285-11.863 18.285-27.91zm-33.078 16.465h-15.351v-29.727h15.351c9.07 0 14.934 3.91 14.934 14.934 0 11.027-5.86 14.793-14.934 14.793zM282.184 225.148c7.523 0 7.734-15.91 0-15.91H232.5c-4.047 0-7.957 1.957-7.957 5.723v90.578c0 3.766 3.91 5.723 7.957 5.723h49.684c7.734 0 7.523-15.91 0-15.91h-39.496v-28.055h21.21c7.723 0 7.489-14.235 0-14.235h-21.21v-27.914zM98.8 430.074c18.423 0 32.798-8.652 32.798-31.96v-38.938c0-23.309-14.375-31.961-32.797-31.961s-32.656 8.652-32.656 31.96v38.938c-.004 23.309 14.234 31.961 32.656 31.961zm-14.515-70.898c0-11.028 5.305-16.051 14.516-16.051 9.07 0 14.652 5.023 14.652 16.05v38.938c0 11.028-5.582 16.051-14.652 16.051-9.211 0-14.516-5.023-14.516-16.05zM156.16 429.234c4.606 0 9.07-1.953 9.07-5.722v-36.426h11.723l19.82 38.52c1.395 2.792 3.766 4.328 6.278 4.328 7.469 0 13.437-8.188 10.61-11.723l-18.282-33.914c10.465-3.211 18.281-11.863 18.281-27.914 0-22.192-14.793-29.168-33.078-29.168h-27.633c-3.488 0-5.863 2.652-5.863 5.582v90.715c0 3.77 4.605 5.722 9.074 5.722zm9.07-86.109h15.352c9.074 0 14.934 3.906 14.934 14.934s-5.86 14.793-14.934 14.793H165.23zM234.594 429.234h24.703c18.422 0 32.797-8.652 32.797-31.957v-38.101c0-23.309-14.375-31.961-32.797-31.961h-24.703c-4.746 0-7.957 2.652-7.957 5.582v90.855c0 2.934 3.21 5.582 7.957 5.582zm10.187-86.109h14.516c9.21 0 14.652 5.164 14.652 16.05v38.102c0 10.883-5.441 16.047-14.652 16.047H244.78zM365.223 343.125c7.52 0 7.734-15.91 0-15.91h-49.684c-4.05 0-7.957 1.953-7.957 5.722v90.575c0 3.77 3.906 5.722 7.957 5.722h49.684c7.734 0 7.52-15.91 0-15.91h-39.496v-28.05h21.21c3.907 0 5.723-3.77 5.723-6.981 0-3.766-2.094-7.254-5.723-7.254h-21.21v-27.914zM448.121 356.383c0-22.192-14.793-29.168-33.074-29.168H387.41c-3.488 0-5.86 2.652-5.86 5.582v90.715c0 7.574 18.141 7.664 18.141 0v-36.426h11.723l19.82 38.52c5.489 10.976 21.383-1.77 16.887-7.395l-18.281-33.914c10.469-3.211 18.281-11.863 18.281-27.914zm-33.074 16.469h-15.352v-29.727h15.352c9.07 0 14.933 3.906 14.933 14.934s-5.863 14.793-14.933 14.793zm0 0" fill="#796703" opacity="1" data-original="#000000" class=""></path></g></svg>