<svg id="Layer_1" enable-background="new 0 0 66 66" viewBox="0 0 66 66" xmlns="http://www.w3.org/2000/svg"><g fill="rgb(0,0,0)"><path d="m43.92 60.08h3.95c.4 0 .73-.33.73-.73s-.33-.73-.73-.73h-3.95c-.4 0-.73.33-.73.73s.32.73.73.73z"/><path d="m43.92 56.55h3.95c.4 0 .73-.33.73-.73s-.33-.73-.73-.73h-3.95c-.4 0-.73.33-.73.73s.32.73.73.73z"/><path d="m43.92 53.01h3.95c.4 0 .73-.33.73-.73s-.33-.73-.73-.73h-3.95c-.4 0-.73.33-.73.73s.32.73.73.73z"/><path d="m53.6 32.09c-.52-.87-1.47-1.41-2.48-1.41h-20.95-20.95c-1.01 0-1.96.54-2.48 1.41l-4.48 7.49c-.34.57-.35 1.25-.02 1.82s.91.92 1.57.92h19.05c1.01 0 1.96-.54 2.48-1.41l4.09-6.84v28.45h-18.71c-.79 0-1.42-.64-1.42-1.42v-15.6c0-.4-.33-.73-.73-.73s-.73.33-.73.73v15.6c0 1.59 1.3 2.89 2.89 2.89h19.45 19.45c1.59 0 2.89-1.3 2.89-2.89v-18.78h4.02c.66 0 1.25-.34 1.57-.92.33-.57.32-1.26-.02-1.82zm-29.52 8.07c-.26.43-.72.69-1.22.69h-19.05c-.18 0-.26-.11-.3-.18-.03-.05-.09-.19 0-.35l4.48-7.49c.26-.43.72-.69 1.22-.69h19.66zm26.96 20.94c0 .78-.64 1.42-1.42 1.42h-18.72v-28.45l4.09 6.84c.52.87 1.47 1.41 2.48 1.41h13.57zm5.78-20.42c-.04.07-.12.18-.3.18h-19.05c-.5 0-.97-.27-1.22-.69l-4.79-8.01h19.66c.5 0 .97.27 1.22.69l4.48 7.49c.09.15.03.29 0 .34z"/><path d="m24.51 12.35h1.96v14.75c0 .4.33.73.73.73s.73-.33.73-.73v-15.48c0-.4-.33-.73-.73-.73h-2.7c-.25 0-.36-.18-.4-.26s-.1-.28.07-.47l5.65-6.55c.12-.13.26-.15.34-.15s.23.02.34.15l5.65 6.55c.17.19.1.4.07.47-.04.08-.15.26-.4.26h-2.7c-.4 0-.73.33-.73.73v15.48c0 .4.33.73.73.73s.73-.33.73-.73v-14.75h1.96c.75 0 1.42-.43 1.73-1.11.31-.69.2-1.47-.29-2.04l-5.65-6.55c-.73-.84-2.16-.84-2.89 0l-5.64 6.55c-.49.57-.61 1.35-.29 2.04.31.68.97 1.11 1.73 1.11z"/><path d="m61.17 6.71h-17.32c-1.56 0-2.83 1.27-2.83 2.83v10.98c0 1.56 1.27 2.83 2.83 2.83h.29v3.32c0 .62.38 1.14.97 1.33.14.05.29.07.43.07.44 0 .86-.21 1.13-.58l3.01-4.14h11.5c1.56 0 2.83-1.27 2.83-2.83v-10.98c-.01-1.56-1.28-2.83-2.84-2.83zm1.37 13.81c0 .75-.61 1.36-1.36 1.36h-11.88c-.23 0-.45.11-.59.3l-3.1 4.27v-3.84c0-.4-.33-.73-.73-.73h-1.03c-.75 0-1.36-.61-1.36-1.36v-10.98c0-.75.61-1.36 1.36-1.36h17.33c.75 0 1.36.61 1.36 1.36z"/><path d="m59.13 11.63c-.48-.27-1.05-.26-1.52.02l-1.85 1.12v-.32c0-.93-.76-1.69-1.69-1.69h-7.26c-.93 0-1.69.76-1.69 1.69v5.16c0 .93.76 1.69 1.69 1.69h7.26c.93 0 1.69-.76 1.69-1.69v-.32l1.85 1.12c.24.15.51.22.78.22.25 0 .51-.07.74-.2.48-.27.77-.76.77-1.31v-4.17c0-.56-.29-1.05-.77-1.32zm-4.83 5.97c0 .12-.1.23-.23.23h-7.26c-.12 0-.23-.1-.23-.23v-5.16c0-.12.1-.23.23-.23h7.26c.12 0 .23.1.23.23v1.62 1.92zm4.07-.45-2.61-1.58v-1.08l2.67-1.55z"/><path d="m14.04 60.08c.4 0 .73-.33.73-.73v-4.49l.32.32c.14.14.33.21.52.21s.37-.07.52-.21c.29-.29.29-.75 0-1.04l-1.57-1.57c-.07-.07-.15-.12-.24-.16s-.18-.06-.28-.06c-.01 0-.01 0-.02 0-.09 0-.18.02-.26.05-.09.04-.17.09-.24.16l-1.57 1.57c-.29.29-.29.75 0 1.04s.75.29 1.04 0l.32-.32v4.49c0 .41.33.74.73.74z"/><path d="m20.14 60.08c.4 0 .73-.33.73-.73v-4.49l.32.32c.14.14.33.21.52.21s.37-.07.52-.21c.29-.29.29-.75 0-1.04l-1.57-1.57c-.07-.07-.15-.12-.24-.16-.18-.07-.38-.07-.56 0-.09.04-.17.09-.24.16l-1.57 1.57c-.29.29-.29.75 0 1.04s.75.29 1.04 0l.32-.32v4.49c0 .4.32.73.73.73z"/></g></svg>